<mxfile host="app.diagrams.net" modified="2021-04-09T11:57:53.289Z" agent="5.0 (Macintosh)" etag="giPiVttq3ar7t210uplG" version="14.5.8" type="github">
  <diagram id="2LF4FJvCdoeoNqXoue0R" name="Page-1">
    <mxGraphModel dx="946" dy="528" grid="1" gridSize="10" guides="1" tooltips="1" connect="1" arrows="1" fold="1" page="1" pageScale="1" pageWidth="850" pageHeight="1100" math="0" shadow="0">
      <root>
        <mxCell id="0" />
        <mxCell id="1" parent="0" />
        <mxCell id="AoF-Xe6gVPO42X29MLLV-1" value="Pflanze" style="swimlane;fontStyle=1;align=center;verticalAlign=top;childLayout=stackLayout;horizontal=1;startSize=26;horizontalStack=0;resizeParent=1;resizeParentMax=0;resizeLast=0;collapsible=1;marginBottom=0;" vertex="1" parent="1">
          <mxGeometry x="340" y="230" width="160" height="200" as="geometry" />
        </mxCell>
        <mxCell id="AoF-Xe6gVPO42X29MLLV-2" value="+ farbeTopf: String&#xa;+farbePflanze: String&#xa;+ anzahlBlaetter: String&#xa;+ stehtLinks: boolean&#xa;" style="text;strokeColor=none;fillColor=none;align=left;verticalAlign=top;spacingLeft=4;spacingRight=4;overflow=hidden;rotatable=0;points=[[0,0.5],[1,0.5]];portConstraint=eastwest;" vertex="1" parent="AoF-Xe6gVPO42X29MLLV-1">
          <mxGeometry y="26" width="160" height="64" as="geometry" />
        </mxCell>
        <mxCell id="AoF-Xe6gVPO42X29MLLV-3" value="" style="line;strokeWidth=1;fillColor=none;align=left;verticalAlign=middle;spacingTop=-1;spacingLeft=3;spacingRight=3;rotatable=0;labelPosition=right;points=[];portConstraint=eastwest;" vertex="1" parent="AoF-Xe6gVPO42X29MLLV-1">
          <mxGeometry y="90" width="160" height="8" as="geometry" />
        </mxCell>
        <mxCell id="AoF-Xe6gVPO42X29MLLV-4" value="+ getFarbeTopf(): String&#xa;+ setFarbeTopf(farbeTopf: String)&#xa;+ getFarbePflanze(): String&#xa;...&#xa;+ stelleNachLinks()&#xa;+ stelleWoandersHin()&#xa;" style="text;strokeColor=none;fillColor=none;align=left;verticalAlign=top;spacingLeft=4;spacingRight=4;overflow=hidden;rotatable=0;points=[[0,0.5],[1,0.5]];portConstraint=eastwest;" vertex="1" parent="AoF-Xe6gVPO42X29MLLV-1">
          <mxGeometry y="98" width="160" height="102" as="geometry" />
        </mxCell>
      </root>
    </mxGraphModel>
  </diagram>
</mxfile>
